<svg width="625" height="223" viewBox="0 0 625 223" fill="none" xmlns="http://www.w3.org/2000/svg">
<g clip-path="url(#clip0)">
<path d="M166 223C146.606 223 129.535 220.005 114.785 214.015C100.308 207.752 88.0162 199.584 77.9097 189.509C68.0764 179.162 60.5648 167.318 55.375 153.976C50.4583 140.362 48 126.203 48 111.5C48 96.7967 50.4583 82.7741 55.375 69.4322C60.5648 55.8181 68.0764 43.9738 77.9097 33.8993C88.0162 23.5525 100.308 15.384 114.785 9.39377C129.535 3.13126 146.606 0 166 0C185.12 0 202.056 3.13126 216.806 9.39377C231.556 15.384 243.847 23.5525 253.681 33.8993C263.787 43.9738 271.299 55.8181 276.215 69.4322C281.405 82.7741 284 96.7967 284 111.5C284 126.203 281.405 140.362 276.215 153.976C271.299 167.318 263.787 179.162 253.681 189.509C243.847 199.584 231.556 207.752 216.806 214.015C202.056 220.005 185.12 223 166 223ZM127.896 111.5C127.896 125.931 131.447 137.231 138.549 145.399C145.65 153.568 154.801 157.652 166 157.652C177.199 157.652 186.35 153.568 193.451 145.399C200.553 137.231 204.104 125.931 204.104 111.5C204.104 97.069 200.553 85.7692 193.451 77.6007C186.35 69.4322 177.199 65.348 166 65.348C154.801 65.348 145.65 69.4322 138.549 77.6007C131.447 85.7692 127.896 97.069 127.896 111.5Z" fill="white"/>
<path d="M0 223V54.7348H50V223H0ZM0 43.3606V2H50V43.3606H0Z" fill="white"/>
<path d="M301.768 223.96C294.152 223.96 288.712 221.016 285.448 215.128V223H269.608V152.92H287.848V179.992C289.32 177.24 291.4 175.16 294.088 173.752C296.776 172.28 299.944 171.544 303.592 171.544C306.664 171.544 309.512 172.216 312.136 173.56C314.824 174.904 317.128 176.76 319.048 179.128C320.968 181.432 322.472 184.216 323.56 187.48C324.648 190.68 325.192 194.168 325.192 197.944C325.192 201.72 324.584 205.208 323.368 208.408C322.216 211.544 320.584 214.264 318.472 216.568C316.424 218.872 313.96 220.696 311.08 222.04C308.2 223.32 305.096 223.96 301.768 223.96ZM296.488 208.6C299.496 208.6 301.896 207.64 303.688 205.72C305.544 203.8 306.472 201.24 306.472 198.04C306.472 196.504 306.216 195.064 305.704 193.72C305.256 192.376 304.616 191.192 303.784 190.168C303.016 189.144 302.056 188.344 300.904 187.768C299.816 187.192 298.6 186.904 297.256 186.904C295.336 186.904 293.512 187.608 291.784 189.016C290.056 190.36 288.744 192.152 287.848 194.392V203.416C290.216 206.872 293.096 208.6 296.488 208.6ZM352.596 223.96C348.18 223.96 343.86 223.256 339.636 221.848C335.412 220.376 331.828 218.264 328.884 215.512L335.124 204.568C338.26 206.68 341.268 208.312 344.148 209.464C347.092 210.616 349.78 211.192 352.212 211.192C354.772 211.192 356.052 210.392 356.052 208.792C356.052 207.896 355.54 207.128 354.516 206.488C353.556 205.848 351.636 205.112 348.756 204.28C345.172 203.256 342.164 202.264 339.732 201.304C337.364 200.28 335.412 199.192 333.876 198.04C332.404 196.888 331.348 195.608 330.708 194.2C330.068 192.792 329.748 191.128 329.748 189.208C329.748 186.648 330.26 184.28 331.284 182.104C332.308 179.928 333.716 178.04 335.508 176.44C337.364 174.84 339.54 173.624 342.036 172.792C344.596 171.896 347.38 171.448 350.388 171.448C354.1 171.448 357.62 171.928 360.948 172.888C364.34 173.848 367.732 175.8 371.124 178.744L364.212 189.688C361.076 187.64 358.452 186.2 356.34 185.368C354.228 184.472 352.244 184.024 350.388 184.024C349.3 184.024 348.404 184.248 347.7 184.696C346.996 185.08 346.644 185.72 346.644 186.616C346.644 187.576 347.156 188.376 348.18 189.016C349.204 189.592 351.22 190.264 354.228 191.032C357.876 191.992 360.948 193.016 363.444 194.104C365.94 195.128 367.924 196.28 369.396 197.56C370.932 198.776 372.02 200.184 372.66 201.784C373.3 203.32 373.62 205.112 373.62 207.16C373.62 209.784 373.14 212.12 372.18 214.168C371.22 216.216 369.812 217.976 367.956 219.448C366.164 220.92 363.956 222.04 361.332 222.808C358.772 223.576 355.86 223.96 352.596 223.96ZM404.722 223.96C400.306 223.96 396.37 223.288 392.914 221.944C389.458 220.536 386.546 218.648 384.178 216.28C381.874 213.912 380.114 211.192 378.898 208.12C377.682 205.048 377.074 201.816 377.074 198.424C377.074 194.776 377.65 191.32 378.802 188.056C380.018 184.792 381.778 181.944 384.082 179.512C386.45 177.08 389.33 175.16 392.722 173.752C396.178 172.28 400.178 171.544 404.722 171.544C409.202 171.544 413.17 172.28 416.626 173.752C420.082 175.16 422.962 177.08 425.266 179.512C427.634 181.88 429.394 184.664 430.546 187.864C431.762 191 432.37 194.296 432.37 197.752C432.37 198.712 432.306 199.704 432.178 200.728C432.114 201.688 432.018 202.552 431.89 203.32H396.466C396.658 206.008 397.65 207.96 399.442 209.176C401.234 210.328 403.186 210.904 405.298 210.904C407.282 210.904 409.138 210.456 410.866 209.56C412.658 208.664 413.842 207.416 414.418 205.816L429.874 210.232C427.826 214.264 424.658 217.56 420.37 220.12C416.146 222.68 410.93 223.96 404.722 223.96ZM412.786 192.376C412.466 189.944 411.57 188.024 410.098 186.616C408.626 185.208 406.738 184.504 404.434 184.504C402.13 184.504 400.242 185.208 398.77 186.616C397.298 188.024 396.402 189.944 396.082 192.376H412.786ZM472.63 188.056C469.11 188.056 465.91 188.44 463.03 189.208C460.15 189.976 458.006 191.256 456.598 193.048V223H438.358V172.504H455.062V182.104C456.854 178.712 459.062 176.12 461.686 174.328C464.374 172.472 467.254 171.544 470.326 171.544C471.542 171.544 472.31 171.576 472.63 171.64V188.056ZM490.776 223L473.784 172.504H492.504L501.528 208.696L510.648 172.504H527.64L510.648 223H490.776ZM555.566 223.96C551.15 223.96 547.214 223.288 543.758 221.944C540.302 220.536 537.39 218.648 535.022 216.28C532.718 213.912 530.958 211.192 529.742 208.12C528.526 205.048 527.918 201.816 527.918 198.424C527.918 194.776 528.494 191.32 529.646 188.056C530.862 184.792 532.622 181.944 534.926 179.512C537.294 177.08 540.174 175.16 543.566 173.752C547.022 172.28 551.022 171.544 555.566 171.544C560.046 171.544 564.014 172.28 567.47 173.752C570.926 175.16 573.806 177.08 576.11 179.512C578.478 181.88 580.238 184.664 581.39 187.864C582.606 191 583.214 194.296 583.214 197.752C583.214 198.712 583.15 199.704 583.022 200.728C582.958 201.688 582.862 202.552 582.734 203.32H547.31C547.502 206.008 548.494 207.96 550.286 209.176C552.078 210.328 554.03 210.904 556.142 210.904C558.126 210.904 559.982 210.456 561.71 209.56C563.502 208.664 564.686 207.416 565.262 205.816L580.718 210.232C578.67 214.264 575.502 217.56 571.214 220.12C566.99 222.68 561.774 223.96 555.566 223.96ZM563.63 192.376C563.31 189.944 562.414 188.024 560.942 186.616C559.47 185.208 557.582 184.504 555.278 184.504C552.974 184.504 551.086 185.208 549.614 186.616C548.142 188.024 547.246 189.944 546.926 192.376H563.63ZM623.474 188.056C619.954 188.056 616.754 188.44 613.874 189.208C610.994 189.976 608.85 191.256 607.442 193.048V223H589.202V172.504H605.906V182.104C607.698 178.712 609.906 176.12 612.53 174.328C615.218 172.472 618.098 171.544 621.17 171.544C622.386 171.544 623.154 171.576 623.474 171.64V188.056Z" fill="white"/>
</g>
<defs>
<clipPath id="clip0">
<rect width="625" height="223" fill="white"/>
</clipPath>
</defs>
</svg>
